<?xml version="1.0" encoding="UTF-8"?>
<svg id="Layer_1" xmlns="http://www.w3.org/2000/svg" version="1.1" viewBox="0 0 612 792">
  <!-- Generator: Adobe Illustrator 29.3.1, SVG Export Plug-In . SVG Version: 2.1.0 Build 151)  -->
  <defs>
    <style>
      .st0 {
        fill: #fff;
      }

      .st1 {
        fill: #9bafda;
      }
    </style>
  </defs>
  <path class="st1" d="M325.41,170.38l177.12,411.59h-61.52c-32.56-75.18-65.08-150.36-97.64-225.54-2.88-.23-6.21-.29-9.9.1-1.55.13-3.01.36-4.37.58-1.26.45-3.79,1.49-6.02,3.92-1.97,2.14-2.85,4.37-3.24,5.6l-10.42,26.34-76.63,189h-60.84c32.36-81.68,64.73-163.37,97.09-245.05,1.17-3.82,3.5-9.61,8.19-15.47,3.56-4.43,7.31-7.48,10.19-9.45,3.69-1.91,8.71-4.08,14.95-5.5,7.64-1.75,14.21-1.75,18.87-1.39l-57.74-134.73h61.91Z"/>
  <path class="st0" d="M343.37,356.43c32.56,75.18,65.08,150.36,97.64,225.54l-131.59-189,10.42-26.34c.39-1.23,1.26-3.46,3.24-5.6,2.23-2.43,4.76-3.46,6.02-3.92,1.36-.23,2.82-.45,4.37-.58,3.69-.39,7.02-.32,9.9-.1Z"/>
  <polygon class="st0" points="309.42 392.97 441.01 581.97 391.39 581.97 309.42 392.97"/>
  <path class="st0" d="M263.5,170.38l57.74,134.73c-4.66-.36-11.23-.36-18.87,1.39-6.25,1.42-11.26,3.59-14.95,5.5-2.88,1.97-6.63,5.02-10.19,9.45-4.69,5.86-7.02,11.65-8.19,15.47-32.36,81.68-64.73,163.37-97.09,245.05l58.8-264.34c2.3-2.27,4.56-4.01,6.54-5.34,4.85-2.82,9.19-4.3,12.3-5.18,4.63-1.23,8.41-1.52,11.42-1.78,4.17-.32,7.7-.26,10.32-.13-8.35-19.22-16.67-38.45-24.98-57.67l17.15-77.15Z"/>
  <path class="st0" d="M263.5,170.38l-17.15,77.15c-11.17-25.73-22.33-51.42-33.46-77.15h50.62Z"/>
  <path class="st0" d="M230.75,317.63l-58.8,264.34h-50.26c32.91-82.69,65.86-165.34,98.77-248.03,1.36-3.82,3.98-9.55,9.09-15.05.39-.42.81-.84,1.2-1.26Z"/>
</svg>