<?xml version="1.0" encoding="UTF-8" standalone="no"?>
<svg
   width="400"
   zoomAndPan="magnify"
   viewBox="0 0 300 141.750002"
   height="189"
   preserveAspectRatio="xMidYMid meet"
   version="1.2"
   id="svg25"
   sodipodi:docname="HARPUpdatedScienceLogo.svg"
   inkscape:version="1.4 (86a8ad7, 2024-10-11)"
   xmlns:inkscape="http://www.inkscape.org/namespaces/inkscape"
   xmlns:sodipodi="http://sodipodi.sourceforge.net/DTD/sodipodi-0.dtd"
   xmlns="http://www.w3.org/2000/svg"
   xmlns:svg="http://www.w3.org/2000/svg">
  <sodipodi:namedview
     id="namedview25"
     pagecolor="#ffffff"
     bordercolor="#666666"
     borderopacity="1.0"
     inkscape:showpageshadow="2"
     inkscape:pageopacity="0.0"
     inkscape:pagecheckerboard="0"
     inkscape:deskcolor="#d1d1d1"
     inkscape:zoom="4.7178434"
     inkscape:cx="144.23963"
     inkscape:cy="124.42126"
     inkscape:window-width="2400"
     inkscape:window-height="1494"
     inkscape:window-x="2869"
     inkscape:window-y="1339"
     inkscape:window-maximized="1"
     inkscape:current-layer="svg25" />
  <defs
     id="defs1" />
  <g
     id="5956295cd6">
    <path
       style=" stroke:none;fill-rule:nonzero;fill:#9bb0db;fill-opacity:1;"
       d="M 117.523438 16.261719 L 150.636719 93.28125 L 139.132812 93.28125 C 133.050781 79.214844 126.960938 65.144531 120.878906 51.078125 C 120.335938 51.03125 119.710938 51.023438 119.03125 51.085938 C 118.742188 51.117188 118.46875 51.160156 118.207031 51.199219 C 117.972656 51.28125 117.507812 51.480469 117.085938 51.933594 C 116.722656 52.335938 116.554688 52.746094 116.480469 52.980469 L 114.527344 57.914062 L 100.195312 93.28125 L 88.820312 93.28125 C 94.871094 77.996094 100.921875 62.710938 106.972656 47.425781 C 107.199219 46.710938 107.632812 45.628906 108.511719 44.53125 C 109.171875 43.703125 109.871094 43.128906 110.410156 42.761719 C 111.097656 42.40625 112.042969 42 113.210938 41.730469 C 114.636719 41.40625 115.871094 41.40625 116.734375 41.476562 L 105.945312 16.261719 Z M 117.523438 16.261719 "
       id="path1" />
    <path
       id="path2"
       style=" stroke:none;fill-rule:nonzero;fill:#ffffff;fill-opacity:1;"
       d="M 120.0044 51.045411 C 119.6958 51.044922 119.36914 51.058594 119.02734 51.09375 C 118.73828 51.121094 118.46045 51.160645 118.20264 51.203614 C 117.96826 51.293458 117.5 51.484375 117.08203 51.9375 C 116.71094 52.339844 116.55127 52.749512 116.47705 52.987793 L 114.52295 57.918457 L 114.53467 57.934571 L 129.86279 93.281251 L 139.1294 93.281251 L 139.13233 93.285645 C 139.13171 93.284233 139.13147 93.282662 139.13086 93.281251 L 139.13233 93.281251 L 139.12793 93.273926 C 133.04755 79.211342 126.95929 65.144615 120.87891 51.082032 L 120.87451 51.082032 C 120.60303 51.060547 120.31299 51.045899 120.0044 51.045411 z " />
    <path
       id="path4"
       style=" stroke:none;fill-rule:nonzero;fill:#ffffff;fill-opacity:1;"
       d="M 105.94922 16.258301 L 105.94482 16.261231 L 105.94775 16.26709 L 105.94922 16.258301 z M 105.94775 16.26709 L 102.73389 30.703125 C 104.29639 34.300781 105.85938 37.891114 107.41406 41.48877 C 106.91406 41.465333 106.25391 41.456543 105.48047 41.515137 C 104.91016 41.558106 104.20654 41.617189 103.34326 41.847657 C 102.76123 42.003907 101.94189 42.288574 101.04346 42.815918 C 100.66846 43.065918 100.2461 43.382813 99.820313 43.816407 L 99.818848 43.825196 C 99.741266 43.898995 99.667965 43.976591 99.590333 44.058106 C 98.641114 45.089356 98.151857 46.160156 97.894044 46.875 C 91.733888 62.339844 85.582031 77.812989 79.417969 93.285645 L 88.820801 93.285645 L 88.823731 93.275391 L 106.97315 47.425782 C 107.19971 46.710939 107.63232 45.628906 108.51123 44.53125 C 109.16357 43.703125 109.87061 43.128906 110.40967 42.761719 C 111.09717 42.410156 112.04248 42.003906 113.21045 41.730469 C 114.63623 41.40625 115.87158 41.406739 116.73486 41.477051 L 105.94775 16.26709 z M 105.94482 16.261231 L 96.473145 16.261231 C 98.562989 21.081543 100.65283 25.89502 102.73096 30.70752 L 105.94482 16.261231 z " />
    <path
       style=" stroke:none;fill-rule:nonzero;fill:#9bb0db;fill-opacity:1;"
       d="M 288.019531 22.910156 C 294.546875 29.566406 294.332031 37.910156 294.273438 39.316406 C 294.375 41.507812 294.402344 48.015625 289.988281 54.097656 C 283.136719 63.542969 271.609375 63.660156 270.363281 63.65625 L 245.6875 63.65625 C 245.5625 63.648438 244.988281 63.601562 244.460938 64.007812 C 243.863281 64.488281 243.8125 65.183594 243.804688 65.292969 C 243.828125 74.644531 243.851562 83.992188 243.871094 93.34375 L 230.292969 93.34375 L 230.292969 63.65625 C 230.34375 58.308594 232.113281 53.859375 234.730469 52.445312 C 236.453125 51.511719 238.667969 51.09375 238.667969 51.09375 C 239.664062 50.90625 240.472656 50.867188 241.921875 50.792969 C 243.503906 50.71875 244.828125 50.734375 245.757812 50.757812 L 270.371094 50.757812 C 276.328125 50.660156 281.027344 45.628906 280.792969 39.921875 C 280.566406 34.527344 276 30.042969 270.371094 29.960938 L 230.292969 29.960938 L 230.292969 16.449219 L 270.371094 16.449219 C 271.632812 16.335938 280.925781 15.683594 288.023438 22.917969 Z M 288.019531 22.910156 "
       id="path7" />
    <path
       style=" stroke:none;fill-rule:nonzero;fill:#9bb0db;fill-opacity:1;"
       d="M 200.160156 29.917969 L 156.785156 29.917969 L 156.785156 16.441406 L 200.160156 16.441406 C 205.0625 16.441406 210.53125 17.625 215.296875 21.6875 C 223.855469 28.972656 223.144531 41.121094 223.074219 42.09375 C 222.621094 48.238281 219.886719 53.953125 216.574219 57.148438 C 214.140625 59.5 211.769531 60.667969 211.769531 60.667969 C 209.855469 61.609375 206.929688 62.585938 206.929688 62.585938 C 206.929688 62.585938 212.730469 72.589844 224.777344 93.316406 L 209.816406 93.316406 L 192.300781 63.59375 C 192.300781 63.59375 178.722656 63.648438 171.925781 63.675781 C 171.820312 63.679688 171.28125 63.734375 170.871094 64.195312 C 170.414062 64.710938 170.476562 65.328125 170.484375 65.425781 L 170.453125 93.3125 L 157.007812 93.335938 L 157.007812 62.578125 C 157.007812 61.8125 157.105469 57.179688 160.882812 53.769531 C 163.839844 51.105469 167.238281 50.824219 168.25 50.773438 C 178.890625 50.785156 189.527344 50.796875 200.171875 50.816406 C 200.761719 50.792969 205.097656 50.539062 207.867188 46.828125 C 210.035156 43.929688 209.855469 40.773438 209.785156 39.964844 C 209.789062 39.246094 209.761719 35.917969 207.160156 33.105469 C 204.402344 30.113281 200.820312 29.941406 200.171875 29.929688 Z M 200.160156 29.917969 "
       id="path8" />
    <path
       style=" stroke:none;fill-rule:nonzero;fill:#9bb0db;fill-opacity:1;"
       d="M 75.90625 16.1875 L 75.847656 93.339844 L 62.277344 93.335938 L 62.273438 61.144531 L 22.890625 61.144531 L 22.921875 93.359375 L 9.429688 93.339844 L 9.386719 16.1875 L 22.957031 16.1875 L 22.957031 47.625 L 62.335938 47.625 L 62.335938 16.1875 Z M 75.90625 16.1875 "
       id="path9" />
    <g
       style="fill:#ffffff;fill-opacity:1;"
       id="g11">
      <g
         transform="translate(72.14786, 126.733239)"
         id="g10">
        <path
           style="stroke:none"
           d="M 11.703125 -3.15625 C 11.703125 -4.039062 11.484375 -4.859375 11.046875 -5.609375 C 10.816406 -5.972656 10.554688 -6.300781 10.265625 -6.59375 C 9.984375 -6.882812 9.65625 -7.140625 9.28125 -7.359375 C 8.914062 -7.578125 8.523438 -7.738281 8.109375 -7.84375 C 7.703125 -7.957031 7.273438 -8.015625 6.828125 -8.015625 L 1.890625 -8.015625 L 1.890625 0 L 0.015625 0 L 0.015625 -9.90625 L 7.546875 -9.90625 C 8.691406 -9.90625 9.671875 -10.3125 10.484375 -11.125 C 11.296875 -11.925781 11.703125 -12.90625 11.703125 -14.0625 C 11.703125 -15.207031 11.296875 -16.1875 10.484375 -17 C 9.671875 -17.8125 8.691406 -18.21875 7.546875 -18.21875 L 0 -18.21875 L 0 -20.09375 L 7.546875 -20.09375 C 8.660156 -20.09375 9.671875 -19.820312 10.578125 -19.28125 C 11.492188 -18.738281 12.222656 -18.007812 12.765625 -17.09375 C 13.304688 -16.1875 13.578125 -15.175781 13.578125 -14.0625 C 13.578125 -12.9375 13.304688 -11.921875 12.765625 -11.015625 C 12.210938 -10.097656 11.484375 -9.375 10.578125 -8.84375 C 11.492188 -8.25 12.222656 -7.460938 12.765625 -6.484375 C 13.304688 -5.546875 13.578125 -4.488281 13.578125 -3.3125 L 13.578125 0 L 11.703125 0 Z M 11.703125 -3.15625 "
           id="path10" />
      </g>
    </g>
    <g
       style="fill:#ffffff;fill-opacity:1;"
       id="g13">
      <g
         transform="translate(90.890718, 126.733239)"
         id="g12">
        <path
           style="stroke:none"
           d="M 14.125 -20.09375 L 14.125 -18.21875 L 0 -18.21875 L 0 -20.09375 Z M 10.328125 -10.984375 L 10.328125 -9.109375 L 0 -9.109375 L 0 -10.984375 Z M 14.125 -1.875 L 14.125 0 L 0 0 L 0 -1.875 Z M 14.125 -1.875 "
           id="path11" />
      </g>
    </g>
    <g
       style="fill:#ffffff;fill-opacity:1;"
       id="g15">
      <g
         transform="translate(109.745442, 126.733239)"
         id="g14">
        <path
           style="stroke:none"
           d="M 14.671875 -4.859375 C 14.671875 -3.941406 14.453125 -3.128906 14.015625 -2.421875 C 13.585938 -1.679688 13 -1.09375 12.25 -0.65625 C 11.539062 -0.21875 10.726562 0 9.8125 0 L 4.875 0 C 3.96875 0 3.148438 -0.21875 2.421875 -0.65625 C 1.679688 -1.09375 1.09375 -1.679688 0.65625 -2.421875 C 0.21875 -3.160156 0 -3.972656 0 -4.859375 L 0 -6.671875 L 1.890625 -6.671875 L 1.890625 -5.1875 C 1.890625 -4.269531 2.210938 -3.488281 2.859375 -2.84375 C 3.503906 -2.195312 4.28125 -1.875 5.1875 -1.875 L 9.484375 -1.875 C 10.398438 -1.875 11.179688 -2.195312 11.828125 -2.84375 C 12.472656 -3.488281 12.796875 -4.269531 12.796875 -5.1875 C 12.796875 -6.21875 12.453125 -7.097656 11.765625 -7.828125 C 11.109375 -8.546875 10.257812 -8.96875 9.21875 -9.09375 L 9.21875 -10.953125 C 9.800781 -10.890625 10.351562 -10.753906 10.875 -10.546875 C 12.007812 -10.066406 12.925781 -9.320312 13.625 -8.3125 C 14.320312 -7.289062 14.671875 -6.140625 14.671875 -4.859375 Z M 3.796875 -9.5625 C 2.671875 -10.039062 1.753906 -10.78125 1.046875 -11.78125 C 0.347656 -12.789062 0 -13.9375 0 -15.21875 C 0 -16.113281 0.21875 -16.929688 0.65625 -17.671875 C 1.09375 -18.421875 1.679688 -19.007812 2.421875 -19.4375 C 3.148438 -19.875 3.96875 -20.09375 4.875 -20.09375 L 9.8125 -20.09375 C 10.726562 -20.09375 11.539062 -19.875 12.25 -19.4375 C 13 -19.007812 13.585938 -18.421875 14.015625 -17.671875 C 14.242188 -17.304688 14.410156 -16.914062 14.515625 -16.5 C 14.617188 -16.09375 14.671875 -15.664062 14.671875 -15.21875 L 14.671875 -13.421875 L 12.796875 -13.421875 L 12.796875 -14.90625 C 12.796875 -15.820312 12.472656 -16.601562 11.828125 -17.25 C 11.179688 -17.894531 10.398438 -18.21875 9.484375 -18.21875 L 5.1875 -18.21875 C 4.28125 -18.21875 3.503906 -17.894531 2.859375 -17.25 C 2.210938 -16.601562 1.890625 -15.820312 1.890625 -14.90625 C 1.890625 -13.882812 2.226562 -13.007812 2.90625 -12.28125 C 3.601562 -11.539062 4.453125 -11.113281 5.453125 -11 L 5.453125 -9.140625 C 4.878906 -9.203125 4.328125 -9.34375 3.796875 -9.5625 Z M 3.796875 -9.5625 "
           id="path13" />
      </g>
    </g>
    <g
       style="fill:#ffffff;fill-opacity:1;"
       id="g17">
      <g
         transform="translate(128.908232, 126.733239)"
         id="g16">
        <path
           style="stroke:none"
           d="M 14.125 -20.09375 L 14.125 -18.21875 L 0 -18.21875 L 0 -20.09375 Z M 10.328125 -10.984375 L 10.328125 -9.109375 L 0 -9.109375 L 0 -10.984375 Z M 14.125 -1.875 L 14.125 0 L 0 0 L 0 -1.875 Z M 14.125 -1.875 "
           id="path15" />
      </g>
    </g>
    <g
       style="fill:#ffffff;fill-opacity:1;"
       id="g19">
      <g
         transform="translate(147.748948, 126.733239)"
         id="g18">
        <path
           style="stroke:none"
           d="M 1.875 0 L 0 0 L 7.59375 -20.09375 L 9.484375 -20.09375 L 17.078125 0 L 15.203125 0 L 8.53125 -17.609375 Z M 1.875 0 "
           id="path17" />
      </g>
    </g>
    <g
       style="fill:#ffffff;fill-opacity:1;"
       id="g21">
      <g
         transform="translate(169.419202, 126.733239)"
         id="g20">
        <path
           style="stroke:none"
           d="M 11.703125 -3.15625 C 11.703125 -4.039062 11.484375 -4.859375 11.046875 -5.609375 C 10.816406 -5.972656 10.554688 -6.300781 10.265625 -6.59375 C 9.984375 -6.882812 9.65625 -7.140625 9.28125 -7.359375 C 8.914062 -7.578125 8.523438 -7.738281 8.109375 -7.84375 C 7.703125 -7.957031 7.273438 -8.015625 6.828125 -8.015625 L 1.890625 -8.015625 L 1.890625 0 L 0.015625 0 L 0.015625 -9.90625 L 7.546875 -9.90625 C 8.691406 -9.90625 9.671875 -10.3125 10.484375 -11.125 C 11.296875 -11.925781 11.703125 -12.90625 11.703125 -14.0625 C 11.703125 -15.207031 11.296875 -16.1875 10.484375 -17 C 9.671875 -17.8125 8.691406 -18.21875 7.546875 -18.21875 L 0 -18.21875 L 0 -20.09375 L 7.546875 -20.09375 C 8.660156 -20.09375 9.671875 -19.820312 10.578125 -19.28125 C 11.492188 -18.738281 12.222656 -18.007812 12.765625 -17.09375 C 13.304688 -16.1875 13.578125 -15.175781 13.578125 -14.0625 C 13.578125 -12.9375 13.304688 -11.921875 12.765625 -11.015625 C 12.210938 -10.097656 11.484375 -9.375 10.578125 -8.84375 C 11.492188 -8.25 12.222656 -7.460938 12.765625 -6.484375 C 13.304688 -5.546875 13.578125 -4.488281 13.578125 -3.3125 L 13.578125 0 L 11.703125 0 Z M 11.703125 -3.15625 "
           id="path19" />
      </g>
    </g>
    <g
       style="fill:#ffffff;fill-opacity:1;"
       id="g23">
      <g
         transform="translate(188.190075, 126.733239)"
         id="g22">
        <path
           style="stroke:none"
           d="M 10.046875 0 C 8.203125 0 6.515625 -0.453125 4.984375 -1.359375 C 3.460938 -2.253906 2.253906 -3.460938 1.359375 -4.984375 C 0.453125 -6.515625 0 -8.203125 0 -10.046875 C 0 -11.898438 0.453125 -13.585938 1.359375 -15.109375 C 2.253906 -16.628906 3.460938 -17.835938 4.984375 -18.734375 C 6.515625 -19.640625 8.203125 -20.09375 10.046875 -20.09375 L 14.125 -20.09375 L 14.125 -18.21875 L 10.046875 -18.21875 C 8.566406 -18.21875 7.195312 -17.847656 5.9375 -17.109375 C 5.320312 -16.742188 4.769531 -16.3125 4.28125 -15.8125 C 3.789062 -15.320312 3.359375 -14.769531 2.984375 -14.15625 C 2.242188 -12.90625 1.875 -11.535156 1.875 -10.046875 C 1.875 -8.566406 2.242188 -7.195312 2.984375 -5.9375 C 3.359375 -5.320312 3.789062 -4.765625 4.28125 -4.265625 C 4.769531 -3.773438 5.320312 -3.347656 5.9375 -2.984375 C 7.164062 -2.242188 8.535156 -1.875 10.046875 -1.875 L 14.125 -1.875 L 14.125 0 Z M 10.046875 0 "
           id="path21" />
      </g>
    </g>
    <g
       style="fill:#ffffff;fill-opacity:1;"
       id="g25">
      <g
         transform="translate(208.011785, 126.733239)"
         id="g24">
        <path
           style="stroke:none"
           d="M 1.890625 -20.09375 L 1.890625 0 L 0 0 L 0 -20.09375 Z M 13.296875 0 L 13.296875 -9.109375 L 3.765625 -9.109375 L 3.765625 -10.984375 L 13.296875 -10.984375 L 13.296875 -20.09375 L 15.1875 -20.09375 L 15.1875 0 Z M 13.296875 0 "
           id="path23" />
      </g>
    </g>
  </g>
</svg>
