<?xml version="1.0" encoding="UTF-8"?>
<svg id="Layer_1" xmlns="http://www.w3.org/2000/svg" version="1.1" viewBox="0 0 612 792">
  <!-- Generator: Adobe Illustrator 29.3.1, SVG Export Plug-In . SVG Version: 2.1.0 Build 151)  -->
  <defs>
    <style>
      .st0, .st1 {
        fill: #fff;
      }

      .st2 {
        fill: #9bb0db;
      }

      .st1 {
        font-family: SciencePERSONALUSEONLY!, 'Science PERSONAL USE ONLY!';
        font-size: 35.05px;
        letter-spacing: .28em;
        stroke: #fff;
        stroke-miterlimit: 10;
      }
    </style>
  </defs>
  <g>
    <g>
      <path class="st2" d="M239.63,295.46l67.67,157.29h-23.51c-12.43-28.73-24.87-57.46-37.3-86.19-1.11-.09-2.39-.11-3.78.02-.59.06-1.15.15-1.68.23-.48.17-1.43.57-2.29,1.5-.75.82-1.09,1.66-1.24,2.14l-3.99,10.07-29.29,72.23h-23.25c12.37-31.22,24.73-62.43,37.1-93.65.46-1.46,1.35-3.67,3.14-5.91,1.35-1.69,2.78-2.86,3.88-3.61,1.41-.73,3.34-1.56,5.73-2.11,2.91-.66,5.43-.66,7.2-.52l-22.05-51.49h23.66Z"/>
      <path class="st0" d="M246.49,366.57c12.43,28.73,24.87,57.46,37.3,86.19l-50.29-72.23,3.99-10.07c.15-.48.48-1.32,1.24-2.14.85-.93,1.81-1.32,2.29-1.5.53-.09,1.09-.17,1.68-.23,1.4-.14,2.67-.11,3.78-.02Z"/>
      <polygon class="st0" points="233.51 380.53 283.79 452.75 264.85 452.75 233.51 380.53"/>
      <path class="st0" d="M215.97,295.46l22.05,51.49c-1.77-.14-4.29-.14-7.2.52-2.39.56-4.32,1.39-5.73,2.11-1.1.75-2.54,1.92-3.88,3.61-1.79,2.24-2.68,4.45-3.14,5.91-12.37,31.22-24.73,62.43-37.1,93.65l22.48-101.02c.87-.88,1.73-1.53,2.5-2.04,1.84-1.08,3.51-1.66,4.7-1.98,1.77-.47,3.2-.59,4.37-.68,1.58-.12,2.93-.1,3.95-.05-3.18-7.35-6.37-14.68-9.56-22.03l6.57-29.5Z"/>
      <path class="st0" d="M215.97,295.46l-6.57,29.5c-4.25-9.83-8.52-19.66-12.79-29.5h19.35Z"/>
      <path class="st0" d="M203.45,351.74l-22.48,101.02h-19.21c12.59-31.6,25.17-63.2,37.76-94.78.52-1.46,1.52-3.65,3.46-5.75.16-.17.31-.33.47-.48Z"/>
    </g>
    <g>
      <path class="st2" d="M588.06,309.04c13.34,13.59,12.9,30.63,12.78,33.5.21,4.48.26,17.77-8.76,30.19-14,19.29-37.56,19.53-40.1,19.52h-50.43c-.26-.02-1.43-.11-2.51.72-1.22.98-1.32,2.4-1.34,2.62.05,19.1.1,38.19.14,57.29h-27.75v-60.63c.1-10.92,3.72-20.01,9.07-22.9,3.52-1.9,8.04-2.76,8.04-2.76,2.04-.38,3.69-.46,6.65-.61,3.24-.15,5.94-.12,7.84-.07h50.3c12.18-.2,21.78-10.48,21.3-22.13-.46-11.02-9.79-20.18-21.3-20.34h-81.9v-27.6h81.9c2.58-.23,21.57-1.56,36.08,13.21Z"/>
      <path class="st2" d="M408.51,323.35h-88.64v-27.52h88.64c10.02,0,21.19,2.41,30.93,10.71,17.49,14.88,16.04,39.69,15.9,41.67-.93,12.55-6.52,24.22-13.29,30.75-4.97,4.8-9.82,7.19-9.82,7.19-3.91,1.92-9.89,3.91-9.89,3.91,0,0,11.86,20.43,36.48,62.76h-30.58l-35.79-60.7s-27.75.11-41.64.17c-.22.01-1.32.12-2.16,1.06-.93,1.05-.8,2.31-.79,2.51l-.06,56.95-27.48.05v-62.81c0-1.57.2-11.03,7.92-17.99,6.04-5.44,12.99-6.02,15.06-6.12,21.74.02,43.48.05,65.23.09,1.21-.05,10.07-.57,15.73-8.15,4.43-5.92,4.06-12.36,3.92-14.01.01-1.47-.05-8.27-5.37-14.01-5.63-6.11-12.95-6.46-14.28-6.49Z"/>
      <polygon class="st2" points="154.58 295.31 154.46 452.87 126.73 452.86 126.72 387.12 46.24 387.12 46.3 452.91 18.73 452.87 18.64 295.31 46.37 295.31 46.37 359.51 126.85 359.51 126.85 295.31 154.58 295.31"/>
    </g>
  </g>
  <path class="st2" d="M203.45,351.74"/>
  <text class="st1" transform="translate(175.01 498.08)"><tspan x="0" y="0">Research</tspan></text>
</svg>